<svg width="48" height="48" viewBox="0 0 48 48" fill="none" xmlns="http://www.w3.org/2000/svg">
<g clip-path="url(#clip0_76_1203)">
<rect width="48" height="48" rx="24" fill="#E42324"/>
<path fill-rule="evenodd" clip-rule="evenodd" d="M14.8025 35.146C15.6653 32.0164 16.2772 28.4436 14.8197 25.5395L15.2135 25.3419C16.7486 28.4005 16.0886 32.1172 15.2251 35.2491C15.0094 36.0317 14.7796 36.7819 14.5661 37.4789L14.5632 37.4883C14.3485 38.1894 14.151 38.8346 13.9988 39.4104C13.8462 39.9873 13.7421 40.4841 13.7105 40.8889C13.6785 41.2998 13.7246 41.5801 13.8346 41.7533L13.4614 41.9873C13.2775 41.6978 13.2396 41.3041 13.2737 40.8663C13.3083 40.4224 13.4205 39.8958 13.5749 39.3116C13.7297 38.7262 13.9299 38.0724 14.144 37.3734L14.1461 37.3664C14.3601 36.668 14.5883 35.9227 14.8025 35.146Z" fill="white"/>
<path fill-rule="evenodd" clip-rule="evenodd" d="M14.8464 25.1998C18.4136 23.4095 19.7372 18.8335 17.8027 14.9791C15.8682 11.1247 11.4083 9.45139 7.84106 11.2417C4.27386 13.032 2.95027 17.608 4.88474 21.4624C6.81921 25.3168 11.2792 26.9901 14.8464 25.1998ZM11.3436 11.8527C11.1553 11.8715 11.0287 12.0483 11.059 12.2299L11.4043 14.3045C11.4345 14.4861 11.6128 14.5996 11.7994 14.6225C11.9054 14.6356 12.0091 14.6641 12.1069 14.7075C12.2047 14.751 12.2942 14.8084 12.3731 14.8775C12.5117 14.999 12.7174 15.0562 12.882 14.9612L14.7627 13.8758C14.9273 13.7808 14.987 13.5742 14.8807 13.4245C14.4935 12.8794 13.9629 12.4456 13.3403 12.169C12.7177 11.8923 12.0289 11.7842 11.3436 11.8527Z" fill="white"/>
<path d="M14.5055 25.185C14.5245 24.9276 14.8205 24.779 15.0382 24.9176C15.0382 24.9176 15.3369 25.1076 15.5282 25.2294C15.8539 25.4368 15.9312 25.5848 15.7517 25.6749C15.4854 25.8085 14.923 26.0908 14.6863 26.2096C14.4495 26.3284 14.4437 26.0215 14.4627 25.7641L14.5055 25.185Z" fill="white"/>
<path fill-rule="evenodd" clip-rule="evenodd" d="M22.2725 28.4871C24.4474 26.0771 26.5969 23.1583 26.5969 19.909H27.0376C27.0376 23.3313 24.7805 26.357 22.6039 28.7689C22.0601 29.3715 21.5182 29.939 21.0148 30.4661L21.008 30.4732C20.5016 31.0035 20.0356 31.4916 19.6413 31.9379C19.2462 32.3852 18.9303 32.7824 18.7205 33.13C18.5076 33.4829 18.4231 33.7542 18.4437 33.9583L18.0051 34C17.9707 33.6588 18.1133 33.2899 18.3402 32.9139C18.5703 32.5327 18.9067 32.1124 19.3068 31.6595C19.7078 31.2057 20.1799 30.7112 20.6848 30.1825L20.6899 30.1772C21.1944 29.649 21.7327 29.0852 22.2725 28.4871Z" fill="white"/>
<path fill-rule="evenodd" clip-rule="evenodd" d="M26.7732 19.6174C30.7644 19.6174 34 16.1213 34 11.8087C34 7.49607 30.7644 4 26.7732 4C22.7819 4 19.5464 7.49607 19.5464 11.8087C19.5464 16.1213 22.7819 19.6174 26.7732 19.6174ZM29.6295 6.11713C29.4529 6.0495 29.2604 6.15079 29.2059 6.32661L28.584 8.33569C28.5295 8.51152 28.638 8.69295 28.7944 8.79718C28.8834 8.85642 28.9632 8.92836 29.0311 9.01106C29.099 9.09375 29.1534 9.18526 29.1928 9.28237C29.2622 9.45321 29.4204 9.59656 29.6102 9.58549L31.7779 9.45902C31.9676 9.44796 32.1136 9.2901 32.0857 9.10858C31.9842 8.44772 31.7046 7.82203 31.2722 7.29548C30.8399 6.76893 30.2728 6.36334 29.6295 6.11713Z" fill="white"/>
<path d="M26.4752 19.4512C26.6076 19.2297 26.9388 19.2297 27.0712 19.4512C27.0712 19.4512 27.2529 19.755 27.3692 19.9497C27.5673 20.2811 27.5701 20.4481 27.3692 20.4481C27.0712 20.4481 26.442 20.4481 26.1771 20.4481C25.9122 20.4481 26.0447 20.1712 26.1771 19.9497L26.4752 19.4512Z" fill="white"/>
<path fill-rule="evenodd" clip-rule="evenodd" d="M29.5537 39.7585C32.2783 37.9935 35.11 35.7306 35.951 32.592L36.3767 32.7061C35.4909 36.0117 32.5277 38.3502 29.801 40.1165C29.1197 40.5579 28.4494 40.9657 27.8267 41.3446L27.8183 41.3497C27.1919 41.7309 26.6155 42.0817 26.1191 42.4108C25.6217 42.7405 25.2137 43.0424 24.9211 43.3239C24.6241 43.6097 24.4723 43.8498 24.4394 44.0523L24.005 43.9791C24.06 43.6406 24.2933 43.3213 24.6098 43.0168C24.9306 42.7081 25.3644 42.3892 25.8681 42.0553C26.3728 41.7207 26.9569 41.3653 27.5814 40.9853L27.5877 40.9814C28.2117 40.6018 28.8776 40.1966 29.5537 39.7585Z" fill="white"/>
<path fill-rule="evenodd" clip-rule="evenodd" d="M36.1968 32.3559C40.052 33.3889 44.0822 30.8494 45.1984 26.6837C46.3146 22.518 44.0941 18.3037 40.2388 17.2707C36.3836 16.2377 32.3534 18.7772 31.2372 22.9428C30.121 27.1085 32.3415 31.3229 36.1968 32.3559ZM42.4499 20.0549C42.2967 19.9439 42.0846 19.9919 41.9865 20.1476L40.8658 21.9273C40.7677 22.083 40.8255 22.2864 40.9496 22.4275C41.0202 22.5078 41.0787 22.5979 41.1229 22.6954C41.1671 22.7928 41.1959 22.8953 41.2088 22.9993C41.2317 23.1823 41.3474 23.3617 41.5335 23.4001L43.6601 23.839C43.8462 23.8774 44.0281 23.7627 44.0482 23.5802C44.1211 22.9155 44.013 22.2388 43.7317 21.6183C43.4503 20.9978 43.0075 20.4592 42.4499 20.0549Z" fill="white"/>
<path d="M35.9519 32.1183C36.1372 31.9386 36.457 32.0243 36.5276 32.2725C36.5276 32.2725 36.6245 32.613 36.6865 32.8311C36.7921 33.2026 36.7515 33.3645 36.5575 33.3126C36.2696 33.2354 35.6619 33.0726 35.406 33.004C35.1501 32.9355 35.3497 32.7023 35.535 32.5226L35.9519 32.1183Z" fill="white"/>
</g>
<defs>
<clipPath id="clip0_76_1203">
<rect width="48" height="48" rx="24" fill="white"/>
</clipPath>
</defs>
</svg>
