<svg width="48" height="48" viewBox="0 0 48 48" fill="none" xmlns="http://www.w3.org/2000/svg">
<rect width="48" height="48" rx="24" fill="#E42324"/>
<path fill-rule="evenodd" clip-rule="evenodd" d="M18.9777 33.7469C20.114 30.706 21.0396 27.2013 19.8448 24.1796L20.2546 24.0176C21.513 27.2001 20.5268 30.8438 19.3896 33.887C19.1055 34.6474 18.8102 35.3744 18.5359 36.0497L18.5322 36.0588C18.2563 36.7382 18.0025 37.3634 17.7999 37.9235C17.5969 38.4847 17.4492 38.9702 17.382 39.3707C17.3137 39.7771 17.3349 40.0604 17.4291 40.2427L17.0366 40.4427C16.8791 40.1382 16.8762 39.7426 16.9489 39.3095C17.0226 38.8705 17.1809 38.3558 17.3865 37.7876C17.5924 37.2182 17.8497 36.5846 18.1248 35.9074L18.1275 35.9005C18.4024 35.2238 18.6957 34.5016 18.9777 33.7469Z" fill="white"/>
<path fill-rule="evenodd" clip-rule="evenodd" d="M19.9014 23.8436C23.613 22.3759 25.3363 17.935 23.7504 13.9245C22.1645 9.91408 17.8701 7.85278 14.1585 9.32048C10.4469 10.7882 8.72363 15.2291 10.3095 19.2395C11.8954 23.25 16.1898 25.3113 19.9014 23.8436ZM17.5932 10.2389C17.404 10.241 17.2623 10.406 17.2763 10.5895L17.4367 12.6865C17.4508 12.87 17.6184 12.9989 17.8022 13.0383C17.9066 13.0607 18.0074 13.0982 18.1009 13.1501C18.1945 13.202 18.2786 13.2672 18.351 13.343C18.4784 13.4763 18.6783 13.5514 18.8506 13.4714L20.82 12.5566C20.9923 12.4766 21.0701 12.2761 20.9774 12.1175C20.6399 11.5403 20.1498 11.0613 19.5541 10.7306C18.9585 10.3999 18.2819 10.2313 17.5932 10.2389Z" fill="white"/>
<path d="M19.5632 23.7987C19.6049 23.544 19.9129 23.4222 20.1175 23.5795C20.1175 23.5795 20.3981 23.7952 20.5779 23.9334C20.884 24.1688 20.9479 24.3231 20.7612 24.3969C20.4841 24.5065 19.899 24.7379 19.6526 24.8353C19.4063 24.9327 19.4276 24.6265 19.4693 24.3718L19.5632 23.7987Z" fill="white"/>
<path fill-rule="evenodd" clip-rule="evenodd" d="M26.5694 32.9049C29.0716 30.8368 31.6228 28.2616 32.0953 25.0469L32.5313 25.111C32.0336 28.4969 29.3605 31.1622 26.8564 33.2319C26.2306 33.749 25.612 34.2316 25.0373 34.68L25.0295 34.686C24.4514 35.137 23.9194 35.5522 23.4644 35.9364C23.0084 36.3214 22.6381 36.6685 22.38 36.9819C22.118 37.3001 21.9949 37.5561 21.9856 37.7611L21.5457 37.7386C21.5612 37.396 21.756 37.0518 22.0352 36.7128C22.3182 36.3691 22.7122 36.0022 23.1739 35.6123C23.6366 35.2216 24.1757 34.801 24.752 34.3514L24.7579 34.3468C25.3338 33.8976 25.9484 33.4181 26.5694 32.9049Z" fill="white"/>
<path fill-rule="evenodd" clip-rule="evenodd" d="M32.3121 24.784C36.261 25.3644 39.9705 22.376 40.5977 18.1092C41.2249 13.8425 38.5321 9.91304 34.5833 9.33261C30.6345 8.75218 26.9249 11.7405 26.2977 16.0073C25.6706 20.2741 28.3633 24.2035 32.3121 24.784ZM37.1014 11.8426C36.9364 11.75 36.7313 11.8222 36.6518 11.9883L35.7443 13.8855C35.6649 14.0516 35.7458 14.2469 35.8854 14.3727C35.9648 14.4443 36.0334 14.5271 36.0885 14.6188C36.1437 14.7104 36.1841 14.8089 36.209 14.9107C36.2529 15.0898 36.3885 15.2547 36.5778 15.2713L38.7409 15.4614C38.9302 15.4781 39.0977 15.3431 39.0965 15.1595C39.0921 14.4909 38.9064 13.8312 38.5553 13.2473C38.2041 12.6635 37.702 12.1797 37.1014 11.8426Z" fill="white"/>
<path d="M32.0414 24.5762C32.2047 24.3763 32.5323 24.4245 32.6312 24.6629C32.6312 24.6629 32.7667 24.9899 32.8535 25.1994C33.0013 25.5561 32.9797 25.7217 32.7811 25.6925C32.4862 25.6492 31.8637 25.5577 31.6016 25.5191C31.3395 25.4806 31.5108 25.2259 31.6741 25.026L32.0414 24.5762Z" fill="white"/>
</svg>
