<svg width="48" height="48" viewBox="0 0 48 48" fill="none" xmlns="http://www.w3.org/2000/svg">
<rect width="48" height="48" rx="24" fill="#E42324"/>
<path fill-rule="evenodd" clip-rule="evenodd" d="M20.2725 33.4871C22.4474 31.0771 24.5969 28.1583 24.5969 24.909H25.0376C25.0376 28.3313 22.7805 31.357 20.6039 33.7689C20.0601 34.3715 19.5182 34.939 19.0148 35.4661L19.008 35.4732C18.5016 36.0035 18.0356 36.4916 17.6413 36.9379C17.2462 37.3852 16.9303 37.7824 16.7205 38.13C16.5076 38.4829 16.4231 38.7542 16.4437 38.9583L16.0051 39C15.9707 38.6588 16.1133 38.2899 16.3402 37.9139C16.5703 37.5327 16.9067 37.1124 17.3068 36.6595C17.7078 36.2057 18.1799 35.7112 18.6848 35.1825L18.6899 35.1772C19.1944 34.649 19.7327 34.0852 20.2725 33.4871Z" fill="white"/>
<path fill-rule="evenodd" clip-rule="evenodd" d="M24.7732 24.6174C28.7644 24.6174 32 21.1213 32 16.8087C32 12.4961 28.7644 9 24.7732 9C20.7819 9 17.5464 12.4961 17.5464 16.8087C17.5464 21.1213 20.7819 24.6174 24.7732 24.6174ZM27.6295 11.1171C27.4529 11.0495 27.2604 11.1508 27.2059 11.3266L26.584 13.3357C26.5295 13.5115 26.638 13.693 26.7944 13.7972C26.8834 13.8564 26.9632 13.9284 27.0311 14.0111C27.099 14.0938 27.1534 14.1853 27.1928 14.2824C27.2622 14.4532 27.4204 14.5966 27.6102 14.5855L29.7779 14.459C29.9676 14.448 30.1136 14.2901 30.0857 14.1086C29.9842 13.4477 29.7046 12.822 29.2722 12.2955C28.8399 11.7689 28.2728 11.3633 27.6295 11.1171Z" fill="white"/>
<path d="M24.4752 24.4512C24.6076 24.2297 24.9388 24.2297 25.0712 24.4512C25.0712 24.4512 25.2529 24.755 25.3692 24.9497C25.5673 25.2811 25.5701 25.4481 25.3692 25.4481C25.0712 25.4481 24.442 25.4481 24.1771 25.4481C23.9122 25.4481 24.0447 25.1712 24.1771 24.9497L24.4752 24.4512Z" fill="white"/>
</svg>
