<svg width="62" height="62" viewBox="0 0 62 62" fill="none" xmlns="http://www.w3.org/2000/svg">
<path fill-rule="evenodd" clip-rule="evenodd" d="M14.8117 48.8348C12.3419 46.728 9.83113 44.1134 9.40868 40.8917L8.97176 40.949C9.4167 44.3422 12.048 47.0488 14.5197 49.1572C15.1373 49.6841 15.7483 50.1762 16.316 50.6335L16.3237 50.6396C16.8947 51.0996 17.4202 51.5229 17.8692 51.9142C18.3191 52.3062 18.684 52.659 18.9372 52.9765C19.1942 53.2986 19.3132 53.5566 19.3193 53.7617L19.7596 53.746C19.7494 53.4033 19.56 53.0561 19.2861 52.7127C19.0085 52.3647 18.6202 51.9917 18.1646 51.5947C17.7081 51.1968 17.1756 50.7679 16.6063 50.3094L16.6006 50.3047C16.0317 49.8466 15.4247 49.3576 14.8117 48.8348Z" fill="#E42324"/>
<path fill-rule="evenodd" clip-rule="evenodd" d="M9.19598 40.6255C5.2386 41.1444 1.57597 38.0987 1.01526 33.8227C0.45455 29.5466 3.2081 25.6596 7.16548 25.1407C11.1229 24.6217 14.7855 27.6674 15.3462 31.9435C15.9069 36.2195 13.1534 40.1065 9.19598 40.6255ZM4.60863 27.6112C4.77502 27.5212 4.97904 27.5966 5.05587 27.7638L5.93377 29.675C6.0106 29.8422 5.92665 30.0362 5.7851 30.1599C5.70463 30.2302 5.63478 30.3119 5.57821 30.4027C5.52163 30.4936 5.47968 30.5914 5.45318 30.6928C5.40656 30.8712 5.26834 31.0339 5.07879 31.0476L2.91301 31.204C2.72347 31.2177 2.55815 31.0802 2.56221 30.8966C2.57697 30.2281 2.77287 29.5714 3.13308 28.9931C3.49329 28.4148 4.00289 27.9389 4.60863 27.6112Z" fill="#E42324"/>
<path d="M9.46988 40.422C9.30974 40.2196 8.98141 40.2626 8.87888 40.4995C8.87888 40.4995 8.73823 40.8243 8.64819 41.0324C8.49486 41.3868 8.51389 41.5527 8.71299 41.5266C9.00849 41.4879 9.63232 41.4061 9.89498 41.3716C10.1576 41.3372 9.99031 41.0798 9.83018 40.8774L9.46988 40.422Z" fill="#E42324"/>
<path fill-rule="evenodd" clip-rule="evenodd" d="M44.3941 53.8233C47.0517 51.9589 49.7979 49.5929 50.5224 46.4254L50.952 46.5237C50.1889 49.8598 47.314 52.3061 44.6545 54.1719C43.9899 54.6381 43.3352 55.0704 42.7269 55.472L42.7187 55.4775C42.1067 55.8815 41.5437 56.2534 41.0598 56.6005C40.5749 56.9484 40.1783 57.2652 39.8963 57.5573C39.6101 57.8538 39.4672 58.0994 39.4418 58.303L39.005 58.2458C39.0475 57.9056 39.2688 57.5778 39.5738 57.2619C39.8831 56.9415 40.3048 56.6068 40.7958 56.2546C41.2878 55.9016 41.8584 55.5248 42.4684 55.122L42.4746 55.1179C43.0841 54.7155 43.7346 54.286 44.3941 53.8233Z" fill="#E42324"/>
<path fill-rule="evenodd" clip-rule="evenodd" d="M50.7593 46.1804C54.6501 47.0704 58.5837 44.3838 59.5453 40.1797C60.507 35.9757 58.1324 31.8462 54.2416 30.9562C50.3509 30.0663 46.4172 32.7529 45.4556 36.9569C44.494 41.1609 46.8685 45.2904 50.7593 46.1804ZM56.554 33.657C56.3968 33.5516 56.1866 33.6075 56.0944 33.7667L55.0401 35.5865C54.9478 35.7458 55.0131 35.9468 55.1423 36.0833C55.2158 36.1609 55.2776 36.2488 55.3254 36.3446C55.3731 36.4403 55.4057 36.5417 55.4225 36.6451C55.4521 36.8271 55.5743 37.0022 55.7617 37.0337L57.9031 37.3937C58.0905 37.4253 58.2681 37.3039 58.2813 37.1208C58.3297 36.4539 58.1966 35.7816 57.8926 35.1719C57.5886 34.5622 57.1261 34.0404 56.554 33.657Z" fill="#E42324"/>
<path d="M50.5058 45.952C50.6844 45.7656 51.0072 45.8394 51.0869 46.0849C51.0869 46.0849 51.1963 46.4215 51.2663 46.6372C51.3855 47.0045 51.3509 47.1679 51.1551 47.1231C50.8646 47.0567 50.2513 46.9164 49.993 46.8573C49.7348 46.7982 49.9257 46.5578 50.1042 46.3714L50.5058 45.952Z" fill="#E42324"/>
<path fill-rule="evenodd" clip-rule="evenodd" d="M28.8037 36.4937C31.9779 32.8821 35.1046 28.5176 35.0415 23.7054L35.6941 23.6968C35.7606 28.7652 32.4767 33.2902 29.3001 36.9046C28.5064 37.8076 27.7149 38.6585 26.9795 39.4491L26.9696 39.4597C26.2299 40.255 25.5493 40.9869 24.974 41.6555C24.3975 42.3256 23.9374 42.92 23.6334 43.439C23.325 43.9657 23.2051 44.3691 23.2396 44.671L22.5909 44.7413C22.5332 44.2367 22.7374 43.6876 23.0661 43.1263C23.3993 42.5573 23.8895 41.9282 24.4732 41.2497C25.0582 40.5699 25.7479 39.8283 26.4853 39.0355L26.4928 39.0275C27.2296 38.2353 28.0159 37.39 28.8037 36.4937Z" fill="#E42324"/>
<path fill-rule="evenodd" clip-rule="evenodd" d="M35.2968 23.27C41.2079 23.1924 45.9319 17.9517 45.848 11.5647C45.7642 5.17766 40.9043 0.0628538 34.9932 0.140457C29.0821 0.218059 24.3582 5.45869 24.442 11.8457C24.5259 18.2328 29.3857 23.3476 35.2968 23.27ZM39.2646 3.22042C39.0017 3.12369 38.7186 3.27744 38.6414 3.5389L37.7593 6.52646C37.6821 6.78792 37.8463 7.05451 38.08 7.20583C38.2128 7.29185 38.3325 7.39684 38.4347 7.51799C38.5368 7.63914 38.6191 7.77362 38.6794 7.91667C38.7855 8.16833 39.0226 8.37756 39.3034 8.35748L42.5114 8.12803C42.7921 8.10795 43.0053 7.87133 42.9605 7.60303C42.7972 6.62627 42.371 5.70504 41.7204 4.93362C41.0699 4.1622 40.222 3.57254 39.2646 3.22042Z" fill="#E42324"/>
<path d="M34.8522 23.0297C35.0441 22.699 35.5345 22.6926 35.735 23.0181C35.735 23.0181 36.01 23.4644 36.1861 23.7505C36.4859 24.2375 36.4932 24.4848 36.1958 24.4887C35.7544 24.4945 34.8226 24.5067 34.4302 24.5118C34.0379 24.517 34.2287 24.1043 34.4205 23.7737L34.8522 23.0297Z" fill="#E42324"/>
</svg>
